<svg version="1.1" class="icon" xmlns="http://www.w3.org/2000/svg" xmlns:xlink="http://www.w3.org/1999/xlink" x="0px" y="0px" viewBox="0 0 175 127.5" style="enable-background:new 0 0 175 127.5;" xml:space="preserve">
<g>
  <g>
    <g>
      <g>
        <path d="M104.1,65.6c0,3.7-0.9,6.6-2.8,8.6c-1.8,2-4.5,3-8,3c-3.5,0-6.1-1-8-3c-1.8-2-2.8-4.9-2.8-8.6
          c0-3.8,0.9-6.6,2.8-8.6c1.9-2,4.5-3,8-3c3.5,0,6.1,1,7.9,3C103.2,59,104.1,61.8,104.1,65.6z M87.6,65.6c0,2.5,0.5,4.4,1.4,5.7
          c1,1.3,2.4,1.9,4.3,1.9c3.8,0,5.7-2.5,5.7-7.6c0-5.1-1.9-7.6-5.7-7.6c-1.9,0-3.3,0.6-4.3,1.9C88.1,61.2,87.6,63.1,87.6,65.6z"/>
      </g>
      <g>
        <path d="M131.9,76.1c-2.8,0-4.9-0.8-6.5-2.3c-1.6-1.5-2.3-3.7-2.3-6.5c0-2.9,0.7-5.1,2.2-6.7c1.4-1.6,3.4-2.4,6-2.4
          c2.4,0,4.3,0.7,5.7,2.1c1.4,1.4,2,3.3,2,5.7v2.3h-11.1c0.1,1.3,0.4,2.4,1.2,3.1c0.7,0.8,1.8,1.1,3.1,1.1c1,0,2-0.1,2.9-0.3
          c0.9-0.2,1.9-0.6,2.9-1v3.6c-0.8,0.4-1.7,0.7-2.6,0.9C134.4,76,133.3,76.1,131.9,76.1z M131.3,61.5c-1,0-1.8,0.3-2.3,0.9
          c-0.6,0.6-0.9,1.5-1,2.7h6.6c0-1.2-0.3-2.1-0.9-2.7C133.1,61.9,132.3,61.5,131.3,61.5z"/>
      </g>
      <g>
        <path d="M156.4,75.8h-4.7V65.7c0-1.2-0.2-2.2-0.7-2.8c-0.4-0.6-1.1-0.9-2.1-0.9c-1.3,0-2.3,0.4-2.9,1.3
          c-0.6,0.9-0.9,2.3-0.9,4.4v8.1h-4.7V58.5h3.6l0.6,2.2h0.3c0.5-0.8,1.2-1.5,2.2-1.9c0.9-0.4,2-0.6,3.1-0.6c2,0,3.5,0.5,4.6,1.6
          c1,1.1,1.6,2.6,1.6,4.7V75.8z"/>
      </g>
    </g>
    <g>
      <g>
        <path d="M97.7,97.1c0,2.1-0.8,3.7-2.3,4.9c-1.5,1.2-3.6,1.8-6.3,1.8c-2.5,0-4.6-0.5-6.5-1.4v-4.6
          c1.6,0.7,2.9,1.2,4,1.5c1.1,0.3,2.1,0.4,3,0.4c1.1,0,1.9-0.2,2.5-0.6c0.6-0.4,0.9-1,0.9-1.8c0-0.5-0.1-0.9-0.4-1.2
          c-0.3-0.4-0.6-0.7-1.1-1c-0.5-0.3-1.5-0.8-3-1.6c-1.4-0.7-2.5-1.3-3.2-1.9c-0.7-0.6-1.3-1.3-1.7-2.1c-0.4-0.8-0.6-1.8-0.6-2.8
          c0-2,0.7-3.7,2.1-4.8s3.3-1.8,5.7-1.8c1.2,0,2.3,0.1,3.4,0.4c1.1,0.3,2.2,0.7,3.4,1.2L96,85.5c-1.2-0.5-2.3-0.9-3.1-1.1
          c-0.8-0.2-1.6-0.3-2.4-0.3c-0.9,0-1.6,0.2-2.1,0.6c-0.5,0.4-0.7,1-0.7,1.7c0,0.4,0.1,0.8,0.3,1.1c0.2,0.3,0.5,0.6,1,0.9
          c0.4,0.3,1.5,0.8,3.1,1.6c2.2,1,3.6,2.1,4.4,3.1C97.3,94.3,97.7,95.5,97.7,97.1z"/>
      </g>
      <g>
        <path d="M107.1,103.8c-5.5,0-8.2-3-8.2-9.1c0-3,0.7-5.3,2.2-6.9c1.5-1.6,3.6-2.4,6.4-2.4c2,0,3.9,0.4,5.5,1.2
          l-1.4,3.7c-0.8-0.3-1.5-0.6-2.1-0.8c-0.7-0.2-1.3-0.3-2-0.3c-2.5,0-4.9,1.8-4.9,5.3c0,3.5,2.4,5.2,4.9,5.2
          c0.9,0,1.8-0.1,2.6-0.4c0.8-0.2,1.6-0.6,2.4-1.2v4.1c-0.8,0.5-1.6,0.8-2.4,1C109.3,103.7,108.3,103.8,107.1,103.8z"/>
      </g>
      <g>
        <path d="M150,95.1c0,2.9-0.8,5.1-2.3,6.7c-1.5,1.6-3.6,2.4-6.3,2.4c-1.7,0-3.2-0.4-4.5-1.1c-1.3-0.7-2.3-1.8-3-3.2
          c-0.7-1.4-1-3-1-4.9c0-2.9,0.8-5.1,2.3-6.7c1.5-1.6,3.6-2.4,6.4-2.4c1.7,0,3.2,0.4,4.5,1.1c1.3,0.7,2.3,1.8,3,3.2
          S150,93.2,150,95.1z M137.7,95.1c0,1.7,0.3,3.1,0.9,4c0.6,0.9,1.5,1.3,2.8,1.3c1.3,0,2.2-0.4,2.8-1.3c0.6-0.9,0.8-2.2,0.8-4
          c0-1.7-0.3-3.1-0.9-3.9c-0.6-0.9-1.5-1.3-2.8-1.3c-1.3,0-2.2,0.4-2.8,1.3S137.7,93.3,137.7,95.1z"/>
      </g>
      <g>
        <path d="M168.4,95.1c0,2.9-0.8,5.1-2.3,6.7c-1.5,1.6-3.6,2.4-6.3,2.4c-1.7,0-3.2-0.4-4.5-1.1
          c-1.3-0.7-2.3-1.8-3-3.2c-0.7-1.4-1-3-1-4.9c0-2.9,0.8-5.1,2.3-6.7c1.5-1.6,3.6-2.4,6.4-2.4c1.7,0,3.2,0.4,4.5,1.1
          c1.3,0.7,2.3,1.8,3,3.2C168.1,91.6,168.4,93.2,168.4,95.1z M156.2,95.1c0,1.7,0.3,3.1,0.9,4c0.6,0.9,1.5,1.3,2.8,1.3
          c1.3,0,2.2-0.4,2.8-1.3c0.6-0.9,0.8-2.2,0.8-4c0-1.7-0.3-3.1-0.9-3.9c-0.6-0.9-1.5-1.3-2.8-1.3c-1.3,0-2.2,0.4-2.8,1.3
          C156.5,92,156.2,93.3,156.2,95.1z"/>
      </g>
      <g>
        <path d="M175,103.8h-4.8V79.2h4.8V103.8z"/>
      </g>
    </g>
    <g>
      <g>
        <path d="M124.7,87c-2.3,0-3.5,0.9-4.6,2.6l0,0v-8h-4.4l0,22.2l4.4,0v-7.1c0-2.1,0.3-3.6,0.9-4.5
          c0.6-0.9,1.6-1.4,2.9-1.4c1.9,0,2.8,1.3,2.8,3.8v9.2h4.3V93.4c0-2.1-0.5-3.7-1.6-4.8C128.4,87.5,126.8,87,124.7,87z"/>
      </g>
      <g>
        <path d="M120,60.3c-1.2-1.6-2.7-2.4-4.8-2.4c-2.2,0-3.8,0.9-4.9,2.6h-0.2l-0.7-2.2h-3.8v21.2h0h4.4h0l0-5.8h0.2
          c1.2,1.5,2.7,2.2,4.8,2.2c1.3,0,2.5-0.4,3.5-1.1c1-0.7,1.8-1.7,2.3-3.1c0.5-1.4,0.8-3,0.8-4.8C121.7,64.1,121.2,61.9,120,60.3z
           M113.8,72c-1.2,0-2.1-0.4-2.6-1.2c-0.5-0.8-0.8-2.1-0.8-4v-0.5c0-1.6,0.3-2.8,0.8-3.5c0.5-0.7,1.4-1.1,2.5-1.1
          c1.1,0,1.9,0.4,2.4,1.3c0.5,0.8,0.8,2.1,0.8,3.8C116.9,70.3,115.9,72,113.8,72z"/>
      </g>
      <g>
        <rect x="110.1" y="79.4" width="0" height="0.9"/>
      </g>
    </g>
    <g>
      <path d="M83.5,109.1h1.8c0.8,0,1.4,0.1,1.8,0.4c0.4,0.3,0.6,0.7,0.6,1.2c0,0.4-0.1,0.7-0.3,0.9
        c-0.2,0.3-0.6,0.4-1,0.5v0c0.5,0.1,0.9,0.2,1.1,0.5s0.4,0.6,0.4,1c0,0.6-0.2,1.1-0.6,1.4c-0.4,0.3-1,0.5-1.7,0.5h-2V109.1z
         M84,112h1.4c0.6,0,1.1-0.1,1.3-0.3c0.3-0.2,0.4-0.5,0.4-1s-0.2-0.7-0.5-0.9c-0.3-0.2-0.8-0.3-1.4-0.3H84V112z M84,112.4v2.8h1.5
        c1.2,0,1.8-0.5,1.8-1.5c0-0.9-0.6-1.3-1.9-1.3H84z"/>
      <path d="M91.5,112.8v2.8h-0.5v-6.5h1.5c0.8,0,1.4,0.1,1.8,0.4c0.4,0.3,0.6,0.7,0.6,1.3c0,0.4-0.1,0.8-0.3,1.1
        c-0.2,0.3-0.6,0.5-1,0.6l1.8,3h-0.5l-1.7-2.8H91.5z M91.5,112.4h1.2c0.5,0,1-0.1,1.3-0.4c0.3-0.2,0.5-0.6,0.5-1.1
        c0-0.5-0.1-0.9-0.4-1.1c-0.3-0.2-0.8-0.3-1.4-0.3h-1.1V112.4z"/>
      <path d="M101.4,113.3h-2.6l-0.9,2.3h-0.5l2.6-6.5h0.3l2.6,6.5h-0.5L101.4,113.3z M98.9,112.9h2.3l-0.9-2.3
        c-0.1-0.2-0.2-0.4-0.3-0.8c-0.1,0.3-0.2,0.5-0.3,0.8L98.9,112.9z"/>
      <path d="M109.2,114c0,0.5-0.2,1-0.6,1.3c-0.4,0.3-0.9,0.5-1.6,0.5c-0.8,0-1.4-0.1-1.8-0.3V115
        c0.5,0.2,1.1,0.3,1.8,0.3c0.5,0,1-0.1,1.3-0.4c0.3-0.2,0.5-0.6,0.5-1c0-0.2-0.1-0.4-0.2-0.6c-0.1-0.2-0.3-0.3-0.5-0.4
        c-0.2-0.1-0.6-0.3-1-0.4c-0.7-0.2-1.1-0.5-1.4-0.7s-0.4-0.6-0.4-1.1c0-0.5,0.2-0.9,0.6-1.2c0.4-0.3,0.9-0.5,1.5-0.5
        c0.6,0,1.2,0.1,1.7,0.3l-0.2,0.4c-0.5-0.2-1.1-0.3-1.5-0.3c-0.5,0-0.9,0.1-1.1,0.3c-0.3,0.2-0.4,0.5-0.4,0.9c0,0.2,0,0.4,0.1,0.6
        c0.1,0.2,0.2,0.3,0.4,0.4c0.2,0.1,0.5,0.3,1,0.4c0.5,0.2,0.9,0.3,1.1,0.5c0.3,0.2,0.4,0.4,0.6,0.6
        C109.1,113.4,109.2,113.7,109.2,114z"/>
      <path d="M112.3,115.6v-6.5h0.5v6.5H112.3z"/>
      <path d="M116.5,115.6v-6.5h0.5v6.1h3.1v0.4H116.5z"/>
    </g>
  </g>
  <g>
    <path d="M0,37.9l0,77.4h6.6l0-7.1h1.9c1,0,1.8-0.7,1.9-1.7c0.1-1.1-0.8-2.1-1.9-2.1h-2l0-1.6h19c1,0,1.8-0.7,1.9-1.7
      c0.1-1.1-0.8-2.1-1.9-2.1H6.5l0-1.6h25.9c1,0,1.9-0.8,1.9-1.9c0-1-0.8-1.9-1.9-1.9h-26l0-1.7h7.3c1,0,1.9-0.8,1.9-1.9
      c0-1-0.8-1.9-1.9-1.9H6.4l0-1.7H23c1,0,1.8-0.7,1.9-1.7c0.1-1.1-0.8-2.1-1.9-2.1H6.4l0-2H34c1,0,1.8-0.7,1.9-1.7
      c0.1-1.1-0.8-2.1-1.9-2.1H6.4l0-1.6h6.9c1,0,1.8-0.7,1.9-1.7c0.1-1.1-0.8-2.1-1.9-2.1h-7l0-1.6h19.5c1,0,1.8-0.7,1.9-1.7
      c0.1-1.1-0.8-2.1-1.9-2.1H6.3l0-1.9h13.6c1,0,1.8-0.7,1.9-1.7c0.1-1.1-0.8-2.1-1.9-2.1H6.3l0-1.6h4.5c1,0,1.8-0.7,1.9-1.7
      c0.1-1.1-0.8-2.1-1.9-2.1H6.2l0-2h15.6c1,0,1.9-0.8,1.9-1.9v0c0-1-0.8-1.9-1.9-1.9H6.2l0-1.6h27.2c1,0,1.9-0.8,1.9-1.9
      c0-1-0.8-1.9-1.9-1.9H6.2l0-1.7h3.7c1,0,1.8-0.7,1.9-1.7c0.1-1.1-0.8-2.1-1.9-2.1H6.2c0-0.6,0.1-1.2,0.1-1.7h13.3
      c1,0,1.9-0.8,1.9-1.9c0-1-0.8-1.9-1.9-1.9H6.9c0.1-0.6,0.3-1.2,0.4-1.8h3.9c1,0,1.9-0.8,1.9-1.9c0-1-0.8-1.9-1.9-1.9H8.6
      c0.2-0.5,0.5-1.1,0.7-1.6h18.7c1,0,1.9-0.8,1.9-1.9c0-1-0.8-1.9-1.9-1.9H11.6c5.4-7.3,14.5-11.1,25.5-11.4v-7h-3.6
      C15,4.5,0,19.5,0,37.9z"/>
    <path d="M65.8,17.9L65.8,17.9C65.8,17.9,65.8,17.9,65.8,17.9c-1-1.4-2.2-2.6-3.4-3.8C50,0.9,38.5,0,38.5,0v4.5v7v0
      v5.6v98.5v0.1v11.8l25-12l9.1-0.1V37.9C72.5,30.4,70,23.5,65.8,17.9z M47,73.5l-3.5,1.7v-9.7l3.5-1.8V65v5.6V73.5z"/>
  </g>
</g>
</svg>
